<svg width="64" height="64" viewBox="0 0 64 64" fill="none" xmlns="http://www.w3.org/2000/svg">
<path fill-rule="evenodd" clip-rule="evenodd" d="M48.888 29.1253L48.5947 28.5333L48.12 28.16C47.4933 27.6693 44.3253 28.1893 43.4747 27.4187C42.8667 26.864 42.7733 25.8613 42.5947 24.512C42.5529 23.2395 42.2229 21.993 41.6293 20.8667C40.7632 19.334 39.5676 18.0127 38.1288 16.9981C36.69 15.9836 35.0439 15.3011 33.3093 15H25.7787C22.9279 15.0077 20.1956 16.1414 18.1768 18.1542C16.158 20.167 15.0162 22.8959 15 25.7467V38.2667C15.0176 41.1157 16.1603 43.8425 18.1792 45.8528C20.198 47.8632 22.9295 48.9944 25.7787 49H38.1493C40.9948 48.9902 43.7216 47.8585 45.7376 45.8504C47.7537 43.8423 48.8963 41.1201 48.9173 38.2747L48.9707 31.1413L48.984 29.5973L48.888 29.1253ZM25.9147 23.7787H31.888C32.4329 23.7787 32.9555 23.9951 33.3409 24.3805C33.7262 24.7658 33.9427 25.2884 33.9427 25.8333C33.9427 26.3783 33.7262 26.9009 33.3409 27.2862C32.9555 27.6715 32.4329 27.888 31.888 27.888H25.9147C25.3697 27.888 24.8471 27.6715 24.4618 27.2862C24.0765 26.9009 23.86 26.3783 23.86 25.8333C23.86 25.2884 24.0765 24.7658 24.4618 24.3805C24.8471 23.9951 25.3697 23.7787 25.9147 23.7787ZM38.048 40.112H25.9147C25.3842 40.112 24.8755 39.9013 24.5005 39.5262C24.1254 39.1511 23.9147 38.6424 23.9147 38.112C23.9147 37.5816 24.1254 37.0729 24.5005 36.6978C24.8755 36.3227 25.3842 36.112 25.9147 36.112H38.048C38.5784 36.112 39.0871 36.3227 39.4622 36.6978C39.8373 37.0729 40.048 37.5816 40.048 38.112C40.048 38.6424 39.8373 39.1511 39.4622 39.5262C39.0871 39.9013 38.5784 40.112 38.048 40.112Z" fill="#A6F4C5"/>
<path d="M38.0453 36.112H25.7947C25.2642 36.1279 24.7618 36.3539 24.398 36.7402C24.0342 37.1266 23.8387 37.6416 23.8547 38.172C23.8706 38.7025 24.0965 39.2048 24.4829 39.5687C24.8692 39.9325 25.3842 40.1279 25.9147 40.112H38.1467C38.4093 40.1054 38.6681 40.047 38.9082 39.9404C39.1483 39.8337 39.365 39.6808 39.546 39.4904C39.727 39.3 39.8688 39.0758 39.9631 38.8306C40.0575 38.5854 40.1026 38.324 40.096 38.0614C40.0893 37.7987 40.031 37.5399 39.9244 37.2998C39.8177 37.0597 39.6648 36.843 39.4744 36.662C39.284 36.481 39.0597 36.3392 38.8146 36.2449C38.5694 36.1505 38.308 36.1054 38.0453 36.112ZM25.9147 27.888H31.888C32.4329 27.888 32.9555 27.6715 33.3409 27.2862C33.7262 26.9009 33.9427 26.3783 33.9427 25.8334C33.9427 25.2884 33.7262 24.7658 33.3409 24.3805C32.9555 23.9952 32.4329 23.7787 31.888 23.7787H25.9147C25.3697 23.7787 24.8471 23.9952 24.4618 24.3805C24.0765 24.7658 23.86 25.2884 23.86 25.8334C23.86 26.3783 24.0765 26.9009 24.4618 27.2862C24.8471 27.6715 25.3697 27.888 25.9147 27.888Z" fill="#34A853"/>
<path d="M52 5.33331H12C10.2319 5.33331 8.53618 6.03569 7.28593 7.28593C6.03569 8.53618 5.33331 10.2319 5.33331 12V52C5.33331 53.7681 6.03569 55.4638 7.28593 56.714C8.53618 57.9643 10.2319 58.6666 12 58.6666H52C53.7681 58.6666 55.4638 57.9643 56.714 56.714C57.9643 55.4638 58.6666 53.7681 58.6666 52V12C58.6666 10.2319 57.9643 8.53618 56.714 7.28593C55.4638 6.03569 53.7681 5.33331 52 5.33331ZM48.9706 31.1413L48.9173 38.2746C48.897 41.1203 47.7546 43.8429 45.7384 45.8512C43.7222 47.8594 40.995 48.9909 38.1493 49H25.776C22.9273 48.9937 20.1965 47.8622 18.1782 45.8519C16.1599 43.8416 15.0176 41.1153 15 38.2666V25.7493C15.0154 22.8981 16.1569 20.1685 18.1758 18.1551C20.1947 16.1417 22.9274 15.0077 25.7786 15H33.3093C35.0439 15.3011 36.69 15.9836 38.1287 16.9981C39.5675 18.0126 40.7632 19.3339 41.6293 20.8666C42.2213 21.992 42.552 23.24 42.5946 24.512C42.7733 25.8613 42.8666 26.864 43.4746 27.4186C44.328 28.192 47.4933 27.6693 48.12 28.16L48.5973 28.5333L48.888 29.1253L48.984 29.5973L48.9706 31.1413Z" fill="#34A853"/>
</svg>
